<svg id="Fabzy" xmlns="http://www.w3.org/2000/svg" viewBox="0 0 163.5 35"><path d="M2.65,2v16.8H22v.95H2.65V36h-1V1H24.2V2Z" transform="translate(-1.65 -1)"/><path d="M53.1,25.45H31.7L26.8,36H25.65L41.9,1h1L59.15,36H58Zm-.45-.95L42.4,2.35,32.15,24.5Z" transform="translate(-1.65 -1)"/><path d="M94.25,26.85a8,8,0,0,1-3.17,6.8Q87.9,36,81.6,36H66.75V1H80.6q5.5,0,8.62,2.27a7.63,7.63,0,0,1,3.13,6.58,7.85,7.85,0,0,1-1.83,5.38,9.29,9.29,0,0,1-5.07,2.82Q94.26,19.25,94.25,26.85ZM67.75,2v15.8h13q5.06,0,7.8-2a6.86,6.86,0,0,0,2.75-5.88A6.84,6.84,0,0,0,88.6,4c-1.83-1.36-4.43-2-7.8-2Zm25.5,24.9a7,7,0,0,0-2.87-6.15q-2.88-2-8.58-2h-14V35.05h14Q93.25,35.05,93.25,26.85Z" transform="translate(-1.65 -1)"/><path d="M129.9,30.5V36H100.05V31.65L120.65,6.5H100.4V1h28.85V5.35L108.65,30.5Z" transform="translate(-1.65 -1)"/><path d="M151.45,23.65V36H145V23.75L131.2,1h7L148.4,18.05,158.75,1h6.4Z" transform="translate(-1.65 -1)"/></svg>